<svg xmlns="http://www.w3.org/2000/svg" width="1129" height="663" viewBox="0 0 1129 663">
  <circle cx="321" cy="321" r="321" fill="#f2f2f2" />
  <ellipse cx="559" cy="635.5" rx="514" ry="27.5" fill="#3f3d56" />
  <ellipse cx="558" cy="627" rx="460" ry="22" opacity="0.2" />
  <rect x="131" y="152.5" width="840" height="50" fill="#3f3d56" />
  <path d="M 166.5 727.3 A 21.7 21.7 0 0 0 188.2 749 H 984.8 A 21.7 21.7 0 0 0 1006.5 727.3 V 296 h -840 Z" transform="translate(-35.5,-118.5)" fill="#3f3d56" />
  <path d="M 984.8 236 H 188.2 A 21.7 21.7 0 0 0 166.5 257.7 V 296 h 840 V 257.7 A 21.7 21.7 0 0 0 984.8 236 Z" transform="translate(-35.5,-118.5)" fill="#3f3d56" />
  <path d="M 984.8 236 H 188.2 A 21.7 21.7 0 0 0 166.5 257.7 V 296 h 840 V 257.7 A 21.7 21.7 0 0 0 984.8 236 Z" transform="translate(-35.5,-118.5)" opacity="0.2" />
  <circle cx="181" cy="147.5" r="13" fill="#3f3d56" />
  <circle cx="217" cy="147.5" r="13" fill="#3f3d56" />
  <circle cx="253" cy="147.5" r="13" fill="#3f3d56" />
  <rect x="168" y="213.5" width="337" height="386" rx="5.3" fill="#606060" />
  <rect x="603" y="272.5" width="284" height="22" rx="5.5" fill="#2e8555" />
  <rect x="537" y="352.5" width="416" height="15" rx="5.5" fill="#2e8555" />
  <rect x="537" y="396.5" width="416" height="15" rx="5.5" fill="#2e8555" />
  <rect x="537" y="440.5" width="416" height="15" rx="5.5" fill="#2e8555" />
  <rect x="537" y="484.5" width="416" height="15" rx="5.5" fill="#2e8555" />
  <rect x="865" y="552.5" width="88" height="26" rx="7" fill="#3ecc5f" />
  <path d="M 1088.6 624.6 a 30.1 30.1 0 0 0 4 -15.3 c 0 -13.8 -8.5 -25 -19.1 -25 s -19.1 11.2 -19.1 25 a 30.1 30.1 0 0 0 4 15.3 a 31.2 31.2 0 0 0 0 30.5 a 31.2 31.2 0 0 0 0 30.5 a 31.2 31.2 0 0 0 0 30.5 a 30.1 30.1 0 0 0 -4 15.3 c 0 13.8 8.5 25 19.1 25 s 19.1 -11.2 19.1 -25 a 30.1 30.1 0 0 0 -4 -15.3 a 31.2 31.2 0 0 0 0 -30.5 a 31.2 31.2 0 0 0 0 -30.5 a 31.2 31.2 0 0 0 0 -30.5 Z" transform="translate(-35.5,-118.5)" fill="#3f3d56" />
  <ellipse cx="1038" cy="460.3" rx="19.1" ry="25" fill="#3f3d56" />
  <ellipse cx="1038" cy="429.8" rx="19.1" ry="25" fill="#3f3d56" />
  <path d="M 1144.9 339.3 a 91.6 91.6 0 0 0 7.1 -10.5 l -50.1 -8.2 l 54.2 0.4 a 91.6 91.6 0 0 0 1.7 -72.4 l -72.8 37.7 l 67.1 -49.3 a 91.4 91.4 0 1 0 -151 102.3 a 91.5 91.5 0 0 0 -10.4 16.7 l 65.1 33.8 l -69.4 -23.3 a 91.5 91.5 0 0 0 14.7 85.8 a 91.4 91.4 0 1 0 143.7 0 a 91.4 91.4 0 0 0 0 -113 Z" transform="translate(-35.5,-118.5)" fill="#3ecc5f" fill-rule="evenodd" />
  <path d="M 981.7 395.9 a 91 91 0 0 0 19.6 56.5 a 91.4 91.4 0 1 0 143.7 0 C 1157.2 436.8 981.7 385.6 981.7 395.9 Z" transform="translate(-35.5,-118.5)" opacity="0.1" />
</svg>
